<?xml version="1.0" standalone="no"?>
<!DOCTYPE svg PUBLIC "-//W3C//DTD SVG 20010904//EN"
 "http://www.w3.org/TR/2001/REC-SVG-20010904/DTD/svg10.dtd">
<svg version="1.0" xmlns="http://www.w3.org/2000/svg"
 width="567.000000pt" height="297.000000pt" viewBox="0 0 567.000000 297.000000"
 preserveAspectRatio="xMidYMid meet">
<metadata>
Created by potrace 1.16, written by Peter Selinger 2001-2019
</metadata>
<g transform="translate(0.000000,297.000000) scale(0.100000,-0.100000)"
fill="#FFFFFF" stroke="none">
<path d="M1413 2738 c-43 -40 -192 -208 -241 -272 -31 -40 -30 -84 3 -92 35
-9 63 0 179 54 136 63 179 63 326 -1 58 -25 117 -49 132 -52 77 -19 91 35 29
112 -50 61 -215 231 -259 266 -25 20 -45 27 -78 27 -38 0 -51 -6 -91 -42z"/>
<path d="M1334 2261 c-369 -100 -633 -410 -676 -795 -16 -141 -1 -260 52 -419
22 -66 40 -131 40 -146 0 -15 -27 -129 -60 -254 -33 -126 -60 -238 -60 -251 0
-36 24 -50 73 -43 23 3 143 38 267 78 l225 72 143 -13 c212 -19 355 0 505 68
239 109 404 304 479 568 32 113 31 351 -1 469 -85 305 -310 557 -583 652 -102
36 -299 42 -404 14z m219 -95 c57 -24 187 -182 187 -228 0 -26 -34 -23 -100 8
-30 14 -80 28 -111 31 -46 5 -67 1 -129 -26 -91 -38 -120 -40 -120 -8 0 47
122 196 183 222 41 18 50 18 90 1z m89 -317 c138 -30 292 -150 356 -277 123
-249 12 -547 -250 -667 -213 -97 -460 -52 -629 115 -153 151 -192 357 -102
547 58 122 195 233 338 274 70 20 210 24 287 8z"/>
<path d="M1384 1637 c-110 -53 -174 -152 -174 -271 0 -88 14 -132 59 -193 26
-34 56 -58 102 -81 58 -30 74 -34 147 -34 98 0 165 27 226 88 61 62 86 125 86
217 0 89 -19 137 -79 200 -61 65 -122 90 -226 94 -79 4 -96 1 -141 -20z"/>
<path d="M2650 1690 c-20 -20 -21 -29 -18 -474 2 -366 6 -456 17 -469 10 -13
31 -17 92 -17 110 0 109 -2 109 179 l0 148 118 6 c133 7 208 26 269 70 82 59
116 135 116 262 0 99 -23 156 -87 219 -76 73 -178 95 -443 96 -141 0 -155 -2
-173 -20z m428 -187 c47 -35 67 -71 66 -118 -2 -102 -39 -134 -170 -148 -52
-5 -100 -7 -109 -3 -12 4 -15 30 -15 152 l0 147 101 -6 c78 -4 108 -10 127
-24z"/>
<path d="M4779 1682 c-46 -24 -59 -37 -86 -91 -27 -52 -33 -74 -33 -127 0 -68
-12 -84 -62 -84 -35 0 -48 -19 -48 -70 0 -57 12 -70 66 -70 l42 0 4 -238 c2
-187 6 -243 17 -256 11 -14 29 -16 90 -14 103 4 101 -3 101 280 l0 227 88 3
87 3 3 47 c5 79 -5 88 -99 88 -65 0 -81 3 -86 17 -9 22 13 124 31 141 8 8 44
16 82 20 38 2 72 10 76 16 4 6 8 32 8 57 0 69 -16 79 -132 79 -85 0 -102 -3
-149 -28z"/>
<path d="M3681 1383 c-30 -11 -49 -26 -64 -51 l-22 -36 -11 39 -11 40 -69 3
c-38 1 -76 -2 -84 -8 -13 -8 -15 -53 -15 -302 1 -215 4 -299 13 -315 11 -21
20 -23 87 -23 103 0 105 3 105 190 0 80 5 163 10 185 13 57 64 102 127 110
100 13 93 7 93 89 0 74 0 74 -31 85 -42 14 -74 13 -128 -6z"/>
<path d="M4099 1386 c-99 -26 -190 -103 -233 -195 -17 -37 -21 -65 -21 -141 0
-84 3 -102 28 -152 84 -171 329 -239 517 -143 224 115 233 461 15 589 -87 51
-210 68 -306 42z m185 -181 c12 -8 33 -29 47 -47 21 -28 24 -44 24 -110 0 -85
-17 -121 -70 -147 -42 -20 -127 -18 -166 5 -84 49 -99 222 -25 283 48 40 141
48 190 16z"/>
</g>
</svg>
